<svg xmlns="http://www.w3.org/2000/svg" viewBox="0 0 96 96" role="img" aria-label="Archiva Logo">
  <defs>
    <linearGradient id="bg" x1="12" y1="8" x2="84" y2="88" gradientUnits="userSpaceOnUse">
      <stop stop-color="#4f8cff"/>
      <stop offset="1" stop-color="#4dd4ff"/>
    </linearGradient>
    <linearGradient id="paper" x1="30" y1="20" x2="66" y2="76" gradientUnits="userSpaceOnUse">
      <stop stop-color="#ffffff" stop-opacity="0.98"/>
      <stop offset="1" stop-color="#dff7ff" stop-opacity="0.9"/>
    </linearGradient>
    <filter id="shadow" x="-20%" y="-20%" width="140%" height="140%">
      <feDropShadow dx="0" dy="8" stdDeviation="8" flood-color="#071021" flood-opacity="0.35"/>
    </filter>
  </defs>
  <rect x="8" y="8" width="80" height="80" rx="24" fill="url(#bg)"/>
  <path d="M25 30c0-4.4 3.6-8 8-8h25l13 13v31c0 4.4-3.6 8-8 8H33c-4.4 0-8-3.6-8-8V30z" fill="url(#paper)" filter="url(#shadow)"/>
  <path d="M58 22v12c0 2.2 1.8 4 4 4h9" fill="none" stroke="#4f8cff" stroke-width="4" stroke-linecap="round" stroke-linejoin="round" opacity="0.9"/>
  <path d="M35 49h26M35 59h18" stroke="#15214a" stroke-width="5" stroke-linecap="round" opacity="0.75"/>
  <path d="M31 40h34" stroke="#4dd4ff" stroke-width="5" stroke-linecap="round"/>
  <circle cx="68" cy="68" r="10" fill="#121933" stroke="#6ee7b7" stroke-width="4"/>
  <path d="M63 68h10M68 63v10" stroke="#6ee7b7" stroke-width="4" stroke-linecap="round"/>
</svg>
